<?xml version="1.0" standalone="no"?>
<!DOCTYPE svg PUBLIC "-//W3C//DTD SVG 20010904//EN"
 "http://www.w3.org/TR/2001/REC-SVG-20010904/DTD/svg10.dtd">
<svg version="1.0" xmlns="http://www.w3.org/2000/svg"
 width="118.000000pt" height="118.000000pt" viewBox="0 0 118.000000 118.000000"
 preserveAspectRatio="xMidYMid meet">
<metadata>
Created by potrace 1.14, written by Peter Selinger 2001-2017
</metadata>
<g transform="translate(0.000000,118.000000) scale(0.100000,-0.100000)"
fill="#000000" stroke="none">
<path d="M465 1160 c-175 -42 -307 -142 -388 -298 -52 -100 -67 -168 -63 -292
2 -59 10 -123 18 -145 l15 -40 334 0 333 0 38 64 c20 35 35 67 34 70 -2 3
-115 6 -251 6 l-248 0 -22 35 c-12 19 -29 49 -39 65 l-18 31 71 118 c39 65 71
122 71 127 0 32 26 34 368 34 188 0 342 2 342 5 0 9 -65 75 -110 111 -131 106
-321 149 -485 109z"/>
<path d="M474 795 c-7 -5 -29 -38 -48 -72 l-35 -63 256 -2 257 -3 32 -55 c18
-30 33 -62 33 -70 0 -8 -35 -73 -78 -145 l-77 -130 -349 -5 -348 -5 52 -53
c66 -67 154 -124 234 -152 111 -38 284 -37 386 1 14 6 26 10 26 9 0 -1 24 11
52 27 192 106 306 296 307 513 0 73 -19 186 -35 204 -11 13 -649 14 -665 1z"/>
</g>
</svg>
